ModelForces
version=1
nRows=4
nColumns=206
inDegrees=no

This file contains the forces exerted on a model during a simulation.

A force is a generalized force, meaning that it can be either a force (N) or a torque (Nm).

Units are S.I. units (second, meters, Newtons, ...)
Angles are in degrees.

endheader
time	glut_med1_r	glut_med2_r	glut_med3_r	glut_min1_r	glut_min2_r	glut_min3_r	semimem_r	semiten_r	bifemlh_r	bifemsh_r	sar_r	add_long_r	add_brev_r	add_mag1_r	add_mag2_r	add_mag3_r	tfl_r	pect_r	grac_r	glut_max1_r	glut_max2_r	glut_max3_r	iliacus_r	psoas_r	quad_fem_r	gem_r	peri_r	rect_fem_r	vas_med_r	vas_int_r	vas_lat_r	med_gas_r	lat_gas_r	soleus_r	tib_post_r	flex_dig_r	flex_hal_r	tib_ant_r	per_brev_r	per_long_r	per_tert_r	ext_dig_r	ext_hal_r	glut_med1_l	glut_med2_l	glut_med3_l	glut_min1_l	glut_min2_l	glut_min3_l	semimem_l	semiten_l	bifemlh_l	bifemsh_l	sar_l	add_long_l	add_brev_l	add_mag1_l	add_mag2_l	add_mag3_l	tfl_l	pect_l	grac_l	glut_max1_l	glut_max2_l	glut_max3_l	iliacus_l	psoas_l	quad_fem_l	gem_l	peri_l	rect_fem_l	vas_med_l	vas_int_l	vas_lat_l	med_gas_l	lat_gas_l	soleus_l	tib_post_l	flex_dig_l	flex_hal_l	tib_ant_l	per_brev_l	per_long_l	per_tert_l	ext_dig_l	ext_hal_l	ercspn_r	ercspn_l	intobl_r	intobl_l	extobl_r	extobl_l	femur_lat_meniscii_l.femur_lat_l.force.X	femur_lat_meniscii_l.femur_lat_l.force.Y	femur_lat_meniscii_l.femur_lat_l.force.Z	femur_lat_meniscii_l.femur_lat_l.torque.X	femur_lat_meniscii_l.femur_lat_l.torque.Y	femur_lat_meniscii_l.femur_lat_l.torque.Z	femur_lat_meniscii_l.meniscus_lat_l.force.X	femur_lat_meniscii_l.meniscus_lat_l.force.Y	femur_lat_meniscii_l.meniscus_lat_l.force.Z	femur_lat_meniscii_l.meniscus_lat_l.torque.X	femur_lat_meniscii_l.meniscus_lat_l.torque.Y	femur_lat_meniscii_l.meniscus_lat_l.torque.Z	femur_med_meniscii_l.femur_med_l.force.X	femur_med_meniscii_l.femur_med_l.force.Y	femur_med_meniscii_l.femur_med_l.force.Z	femur_med_meniscii_l.femur_med_l.torque.X	femur_med_meniscii_l.femur_med_l.torque.Y	femur_med_meniscii_l.femur_med_l.torque.Z	femur_med_meniscii_l.meniscus_med_l.force.X	femur_med_meniscii_l.meniscus_med_l.force.Y	femur_med_meniscii_l.meniscus_med_l.force.Z	femur_med_meniscii_l.meniscus_med_l.torque.X	femur_med_meniscii_l.meniscus_med_l.torque.Y	femur_med_meniscii_l.meniscus_med_l.torque.Z	femur_lat_meniscii_r.femur_lat_r.force.X	femur_lat_meniscii_r.femur_lat_r.force.Y	femur_lat_meniscii_r.femur_lat_r.force.Z	femur_lat_meniscii_r.femur_lat_r.torque.X	femur_lat_meniscii_r.femur_lat_r.torque.Y	femur_lat_meniscii_r.femur_lat_r.torque.Z	femur_lat_meniscii_r.meniscus_lat_r.force.X	femur_lat_meniscii_r.meniscus_lat_r.force.Y	femur_lat_meniscii_r.meniscus_lat_r.force.Z	femur_lat_meniscii_r.meniscus_lat_r.torque.X	femur_lat_meniscii_r.meniscus_lat_r.torque.Y	femur_lat_meniscii_r.meniscus_lat_r.torque.Z	femur_med_meniscii_r.femur_med_r.force.X	femur_med_meniscii_r.femur_med_r.force.Y	femur_med_meniscii_r.femur_med_r.force.Z	femur_med_meniscii_r.femur_med_r.torque.X	femur_med_meniscii_r.femur_med_r.torque.Y	femur_med_meniscii_r.femur_med_r.torque.Z	femur_med_meniscii_r.meniscus_med_r.force.X	femur_med_meniscii_r.meniscus_med_r.force.Y	femur_med_meniscii_r.meniscus_med_r.force.Z	femur_med_meniscii_r.meniscus_med_r.torque.X	femur_med_meniscii_r.meniscus_med_r.torque.Y	femur_med_meniscii_r.meniscus_med_r.torque.Z	femur_med_tibia_l.tibia_upper_l.force.X	femur_med_tibia_l.tibia_upper_l.force.Y	femur_med_tibia_l.tibia_upper_l.force.Z	femur_med_tibia_l.tibia_upper_l.torque.X	femur_med_tibia_l.tibia_upper_l.torque.Y	femur_med_tibia_l.tibia_upper_l.torque.Z	femur_med_tibia_l.femur_med_l.force.X	femur_med_tibia_l.femur_med_l.force.Y	femur_med_tibia_l.femur_med_l.force.Z	femur_med_tibia_l.femur_med_l.torque.X	femur_med_tibia_l.femur_med_l.torque.Y	femur_med_tibia_l.femur_med_l.torque.Z	femur_lat_tibia_l.tibia_upper_l.force.X	femur_lat_tibia_l.tibia_upper_l.force.Y	femur_lat_tibia_l.tibia_upper_l.force.Z	femur_lat_tibia_l.tibia_upper_l.torque.X	femur_lat_tibia_l.tibia_upper_l.torque.Y	femur_lat_tibia_l.tibia_upper_l.torque.Z	femur_lat_tibia_l.femur_lat_l.force.X	femur_lat_tibia_l.femur_lat_l.force.Y	femur_lat_tibia_l.femur_lat_l.force.Z	femur_lat_tibia_l.femur_lat_l.torque.X	femur_lat_tibia_l.femur_lat_l.torque.Y	femur_lat_tibia_l.femur_lat_l.torque.Z	femur_med_tibia_r.tibia_upper_r.force.X	femur_med_tibia_r.tibia_upper_r.force.Y	femur_med_tibia_r.tibia_upper_r.force.Z	femur_med_tibia_r.tibia_upper_r.torque.X	femur_med_tibia_r.tibia_upper_r.torque.Y	femur_med_tibia_r.tibia_upper_r.torque.Z	femur_med_tibia_r.femur_med_r.force.X	femur_med_tibia_r.femur_med_r.force.Y	femur_med_tibia_r.femur_med_r.force.Z	femur_med_tibia_r.femur_med_r.torque.X	femur_med_tibia_r.femur_med_r.torque.Y	femur_med_tibia_r.femur_med_r.torque.Z	femur_lat_tibia_r.tibia_upper_r.force.X	femur_lat_tibia_r.tibia_upper_r.force.Y	femur_lat_tibia_r.tibia_upper_r.force.Z	femur_lat_tibia_r.tibia_upper_r.torque.X	femur_lat_tibia_r.tibia_upper_r.torque.Y	femur_lat_tibia_r.tibia_upper_r.torque.Z	femur_lat_tibia_r.femur_lat_r.force.X	femur_lat_tibia_r.femur_lat_r.force.Y	femur_lat_tibia_r.femur_lat_r.force.Z	femur_lat_tibia_r.femur_lat_r.torque.X	femur_lat_tibia_r.femur_lat_r.torque.Y	femur_lat_tibia_r.femur_lat_r.torque.Z	aACL_R	pACL_R	aPCL_R	pPCL_R	aMCL_R	mMCL_R	pMCL_R	aLCL_R	mLCL_R	pLCL_R	aPCL_L	pPCL_L	aMCL_L	aLCL_L	ground_prescribedForce_-80_fx	ground_prescribedForce_-80_fy	ground_prescribedForce_-80_fz
      0.11299841	     15.35935759	     10.98251881	     11.84925810	      5.01632376	      5.75631847	      6.48712835	      0.00000000	      7.57200593	      8.93954648	     11.77340774	      3.03890085	     10.96335400	      7.76686366	      5.64010111	      4.81380678	      8.25815569	      5.64258767	      4.24230972	      2.96852127	      7.10194351	     10.80938438	      8.15420668	     32.43944368	     24.10649787	      6.93666042	      4.46574138	      9.45650381	    130.32155506	     54.42680285	     41.93690286	     74.68643004	      0.00000000	      0.95003850	     15.23356814	     17.96999011	      8.71164068	      9.27549490	     24.74662475	     11.17324359	     25.50492961	      7.32045256	      8.69344492	      1.81596746	     15.35935759	     10.98251881	     11.84925810	      5.01632376	      5.75631847	      6.48712835	     19.44916540	      8.26528209	     16.80016875	     13.81143520	      2.85871680	     10.96335400	      7.76686366	      5.64010111	      4.81380678	      8.25815569	      6.74696324	      4.24230972	      2.96449925	      7.10194351	     10.80938438	      8.15420668	     32.43944368	     24.10649787	      6.93666042	      4.46574138	      9.45650381	     23.16505316	     13.02157098	     15.10351265	     16.22638039	     33.71003381	     15.67902318	     72.01275191	     59.89611994	      7.20281660	      7.13998070	     18.00975791	      9.73998240	     24.09333028	      3.72363425	     12.21426236	      3.82804517	     47.24426938	     47.24426938	     17.90549592	     17.90549592	     34.88440784	     34.88440784	      2.76307435	     50.99597937	     -9.56042239	      5.21997485	     -0.02578839	      1.48581788	     -2.76307435	    -50.99597937	      9.56042239	     -1.74637766	      0.02558040	     -0.48301696	     -3.31599387	     20.97615968	     -3.40468921	      0.94473225	     -0.02138609	     -1.00501789	      3.31599387	    -20.97615968	      3.40468921	      0.28075727	      0.00368718	     -0.29758878	    220.72300711	      8.96277109	     33.07813076	    -13.62627587	      5.41279374	     90.03759577	   -220.72300711	     -8.96277109	    -33.07813076	      0.53197924	     -7.11719345	     -2.20044762	     94.73726003	    -52.29189602	     -9.81382877	      2.96077020	     -1.85000406	     38.36356656	    -94.73726003	     52.29189602	      9.81382877	      0.74593698	      1.78044469	     -2.21043195	      0.00000000	      0.00000000	      0.00000000	      0.00000000	      0.00000000	      0.00000000	      0.00000000	      0.00000000	      0.00000000	      0.00000000	      0.00000000	      0.00000000	      0.00000000	      0.00000000	      0.00000000	      0.00000000	      0.00000000	      0.00000000	      0.00000000	      0.00000000	      0.00000000	      0.00000000	      0.00000000	      0.00000000	   -588.93065907	    -36.77847459	    126.24643068	     -1.75314130	     11.73736994	     -4.64634965	    588.93065907	     36.77847459	   -126.24643068	     51.98386019	    -10.37114763	    239.36710803	    -21.58514452	     -5.86238408	     -6.18919492	      0.22752255	     -0.77400429	     -0.06019763	     21.58514452	      5.86238408	      6.18919492	     -2.66254864	      0.52587393	      8.78750809	      0.00000000	      0.00000000	    686.12992545	    318.25370087	     19.43814227	      8.74764838	      2.57977306	      0.00000000	      0.00000000	      0.00000000	      0.00000000	      0.00000000	      0.00000001	      0.00000000	     19.10100000	   -108.32880000	      0.00000000
      0.11465353	     15.18739128	     10.86587335	     11.72206205	      4.96503249	      5.69981188	      6.41461492	      0.00000000	      7.48533551	      8.84046759	     11.63230475	      3.00559855	     10.84571401	      7.68816286	      5.58032828	      4.76174467	      8.16430674	      5.58278495	      4.19861682	      2.93576861	      7.02600737	     10.69363921	      8.06583942	     32.22175771	     23.85864040	      6.86428789	      4.42964293	      9.34531062	    130.24985810	     54.17667214	     41.62805639	     74.37143315	      0.00000000	      0.93157028	     15.07326187	     17.68117207	      8.62995845	      9.19429433	     24.50746406	     11.02240931	     25.19394350	      7.29909068	      8.44385891	      1.76758167	     15.18739128	     10.86587335	     11.72206205	      4.96503249	      5.69981188	      6.41461492	     19.22225675	      8.17316895	     16.60434438	     13.66712556	      2.82961856	     10.84571401	      7.68816286	      5.58032828	      4.76174467	      8.16430674	      6.68861583	      4.19861682	      2.93382019	      7.02600737	     10.69363921	      8.06583942	     32.22175771	     23.85864040	      6.86428789	      4.42964293	      9.34531062	     22.89552301	     12.87897082	     14.93619268	     16.04617209	     33.31628858	     15.49526756	     71.16337939	     59.51432517	      7.10910345	      7.04899918	     17.80183140	      9.62497660	     23.84668873	      3.68547776	     12.07116631	      3.78315261	     46.76019043	     46.76019043	     17.70937428	     17.70937428	     34.70411383	     34.70411383	      2.76307435	     50.99597937	     -9.56042239	      5.21997485	     -0.02578839	      1.48581788	     -2.76307435	    -50.99597937	      9.56042239	     -1.74637766	      0.02558040	     -0.48301696	     -3.31599387	     20.97615968	     -3.40468921	      0.94473225	     -0.02138609	     -1.00501789	      3.31599387	    -20.97615968	      3.40468921	      0.28075727	      0.00368718	     -0.29758878	    221.44978613	      9.47870657	     31.74300408	    -13.09198655	      5.41263014	     90.33495301	   -221.44978613	     -9.47870657	    -31.74300408	      0.52856904	     -7.08548463	     -2.18883388	     94.50310188	    -51.69192712	    -10.00223877	      3.03719292	     -1.85207107	     38.26951355	    -94.50310188	     51.69192712	     10.00223877	      0.74612542	      1.78749291	     -2.19024204	      0.00000000	      0.00000000	      0.00000000	      0.00000000	      0.00000000	      0.00000000	      0.00000000	      0.00000000	      0.00000000	      0.00000000	      0.00000000	      0.00000000	      0.00000000	      0.00000000	      0.00000000	      0.00000000	      0.00000000	      0.00000000	      0.00000000	      0.00000000	      0.00000000	      0.00000000	      0.00000000	      0.00000000	   -586.76516798	    -36.65948544	    127.63442935	     -1.76028071	     11.77065763	     -4.60575131	    586.76516798	     36.65948544	   -127.63442935	     52.54543131	    -10.36471760	    238.48072228	    -20.68033494	     -5.74646035	     -5.86627267	      0.22018885	     -0.73917112	     -0.05204724	     20.68033494	      5.74646035	      5.86627267	     -2.52758602	      0.50293447	      8.41771204	      0.00000000	      0.00000000	    684.44255454	    316.45643162	     19.70238437	      8.97735635	      2.77133965	      0.00000000	      0.00000000	      0.00000000	      0.00000000	      0.00000000	      0.00000001	      0.00000000	     19.10100000	   -108.32880000	      0.00000000
      0.11630866	     15.01929752	     10.75185770	     11.59774069	      4.91488627	      5.64458011	      6.34373533	      0.00000000	      7.40126308	      8.74329360	     11.49910026	      2.97545159	     10.73073237	      7.61121330	      5.52190624	      4.71086398	      8.07255944	      5.52400961	      4.15590249	      2.90445567	      6.95179494	     10.58051964	      7.97947597	     32.00908376	     23.61644720	      6.79354114	      4.39437877	      9.23645066	    130.19093995	     53.93095202	     41.34005536	     74.07661044	      0.00000000	      0.91536847	     14.91852266	     17.39455322	      8.54449265	      9.10984194	     24.26814196	     10.88094206	     24.89388441	      7.28023818	      8.21102641	      1.72338274	     15.01929752	     10.75185770	     11.59774069	      4.91488627	      5.64458011	      6.34373533	     19.00017324	      8.08313439	     16.41277071	     13.52606132	      2.80116886	     10.73073237	      7.61121330	      5.52190624	      4.71086398	      8.07255944	      6.63157338	      4.15590249	      2.90382869	      6.95179494	     10.58051964	      7.97947597	     32.00908376	     23.61644720	      6.79354114	      4.39437877	      9.23645066	     22.63187984	     12.73963076	     14.77268955	     15.87009657	     32.93055181	     15.31526515	     70.33185097	     59.14103365	      7.01742609	      6.96005864	     17.59849882	      9.51245330	     23.60552927	      3.64819366	     11.93107200	      3.73921655	     46.28692506	     46.28692506	     17.51768585	     17.51768585	     34.52800206	     34.52800206	      2.76307435	     50.99597937	     -9.56042239	      5.21997485	     -0.02578839	      1.48581788	     -2.76307435	    -50.99597937	      9.56042239	     -1.74637766	      0.02558040	     -0.48301696	     -3.31599387	     20.97615968	     -3.40468921	      0.94473225	     -0.02138609	     -1.00501789	      3.31599387	    -20.97615968	      3.40468921	      0.28075727	      0.00368718	     -0.29758878	    221.00633908	      9.96358114	     32.18367970	    -13.28287886	      5.40700725	     90.14824347	   -221.00633908	     -9.96358114	    -32.18367970	      0.54553926	     -7.09334471	     -2.15846782	     95.41239892	    -51.43942227	     -9.53576080	      2.85507318	     -1.86607701	     38.63174156	    -95.41239892	     51.43942227	      9.53576080	      0.74363974	      1.78417353	     -2.18211705	      0.00000000	      0.00000000	      0.00000000	      0.00000000	      0.00000000	      0.00000000	      0.00000000	      0.00000000	      0.00000000	      0.00000000	      0.00000000	      0.00000000	      0.00000000	      0.00000000	      0.00000000	      0.00000000	      0.00000000	      0.00000000	      0.00000000	      0.00000000	      0.00000000	      0.00000000	      0.00000000	      0.00000000	   -584.84694532	    -36.98363938	    125.65309037	     -1.73934664	     11.67223759	     -4.55172509	    584.84694532	     36.98363938	   -125.65309037	     51.74336977	    -10.32108284	    237.69100337	    -19.79667156	     -5.49970541	     -5.65088221	      0.21117344	     -0.70918826	     -0.04947672	     19.79667156	      5.49970541	      5.65088221	     -2.43406860	      0.48180188	      8.05822329	      0.00000000	      0.00000000	    682.80429242	    314.84302543	     19.75174519	      9.00614102	      2.78714264	      0.00000000	      0.00000000	      0.00000000	      0.00000000	      0.00000000	      0.00000001	      0.00000000	     19.10100000	   -108.32880000	      0.00000000
      0.11848943	     14.80358103	     10.60554348	     11.43821184	      4.85051781	      5.57370330	      6.25277599	      0.00000000	      7.29178796	      8.61792854	     11.32035743	      2.93376821	     10.58318771	      7.51243273	      5.44693894	      4.64558119	      7.95480251	      5.44527723	      4.10107828	      2.86309462	      6.85657674	     10.43537913	      7.86866462	     31.73631609	     23.30576051	      6.70274428	      4.34915540	      9.09650004	    130.10364820	     53.60566612	     40.94871664	     73.67613444	      0.00000000	      0.89334255	     14.71451617	     17.02220389	      8.42727418	      8.99534209	     23.96350833	     10.70294304	     24.50992129	      7.25522242	      7.93057264	      1.67173906	     14.80358103	     10.60554348	     11.43821184	      4.85051781	      5.57370330	      6.25277599	     18.71475788	      7.96759814	     16.16669098	     13.34502384	      2.76464896	     10.58318771	      7.51243273	      5.44693894	      4.64558119	      7.95480251	      6.55835924	      4.10107828	      2.86533501	      6.85657674	     10.43537913	      7.86866462	     31.73631609	     23.30576051	      6.70274428	      4.34915540	      9.09650004	     22.29327827	     12.56088548	     14.56293630	     15.64424703	     32.43427562	     15.08370295	     69.26286857	     58.66186784	      6.89964596	      6.84589004	     17.33743164	      9.36789435	     23.29593234	      3.60036579	     11.75097967	      3.68275810	     45.67944405	     45.67944405	     17.27171345	     17.27171345	     34.30217287	     34.30217287	      2.76307435	     50.99597937	     -9.56042239	      5.21997485	     -0.02578839	      1.48581788	     -2.76307435	    -50.99597937	      9.56042239	     -1.74637766	      0.02558040	     -0.48301696	     -3.31599387	     20.97615968	     -3.40468921	      0.94473225	     -0.02138609	     -1.00501789	      3.31599387	    -20.97615968	      3.40468921	      0.28075727	      0.00368718	     -0.29758878	    221.68794391	     10.75929679	     31.58144579	    -13.05640441	      5.41624340	     90.42674214	   -221.68794391	    -10.75929679	    -31.58144579	      0.55998583	     -7.09227888	     -2.13634773	     96.35783711	    -51.79185955	    -10.21620664	      3.12124655	     -1.89348530	     39.01502370	    -96.35783711	     51.79185955	     10.21620664	      0.74576363	      1.82536809	     -2.19659711	      0.00000000	      0.00000000	      0.00000000	      0.00000000	      0.00000000	      0.00000000	      0.00000000	      0.00000000	      0.00000000	      0.00000000	      0.00000000	      0.00000000	      0.00000000	      0.00000000	      0.00000000	      0.00000000	      0.00000000	      0.00000000	      0.00000000	      0.00000000	      0.00000000	      0.00000000	      0.00000000	      0.00000000	   -581.71581126	    -36.50062850	    126.77435483	     -1.73875506	     11.68210681	     -4.50978187	    581.71581126	     36.50062850	   -126.77435483	     52.19129390	    -10.29783993	    236.41446171	    -18.84529728	     -5.32222477	     -5.27525164	      0.20163492	     -0.67118539	     -0.04311762	     18.84529728	      5.32222477	      5.27525164	     -2.27619198	      0.45725793	      7.67009302	      0.00000000	      0.00000000	    680.61930819	    312.64731493	     20.11186610	      9.33217076	      3.07179656	      0.00000000	      0.00000000	      0.00000000	      0.00000000	      0.00000000	      0.00000001	      0.00000000	     19.10100000	   -108.32880000	      0.00000000
